<mxfile host="app.diagrams.net" modified="2024-07-04T06:46:03.848Z" agent="Mozilla/5.0 (Windows NT 10.0; Win64; x64) AppleWebKit/537.36 (KHTML, like Gecko) Chrome/126.0.0.0 Safari/537.36 Edg/126.0.0.0" version="23.1.5" etag="rJM7WC5whovIYM4wBWQK" type="github">
  <diagram name="第 1 页" id="5GUq1m0n7oOkVypP81_t">
    <mxGraphModel>
      <root>
        <mxCell id="0" />
        <mxCell id="1" parent="0" />
      </root>
    </mxGraphModel>
  </diagram>
</mxfile>
